<?xml version="1.0" standalone="no"?>
<!DOCTYPE svg PUBLIC "-//W3C//DTD SVG 20010904//EN"
 "http://www.w3.org/TR/2001/REC-SVG-20010904/DTD/svg10.dtd">
<svg version="1.0" xmlns="http://www.w3.org/2000/svg"
 width="300.000000pt" height="300.000000pt" viewBox="0 0 300.000000 300.000000"
 preserveAspectRatio="xMidYMid meet">
<metadata>
Created by potrace 1.10, written by Peter Selinger 2001-2011
</metadata>
<g transform="translate(0.000000,300.000000) scale(0.100000,-0.100000)"
fill="#000000" stroke="none">
<path  d="M730 2925 c0 0 -3 -73 -6 -162 l-6 -163 37 0 36 0 -3 164 -3 165 -27
-2 c-16 -1 -28 -2 -28 -2z"/>
<path d="M840 2763 l0 -163 30 0 29 0 3 165 3 164 -32 -1 -33 -1 0 -164z"/>
<path d="M2073 2763 l-1 -163 35 0 36 0 -6 55 c-3 30 -4 55 -2 55 2 0 18 -25
35 -55 30 -52 34 -55 71 -55 21 0 39 2 39 5 0 3 -18 30 -39 59 l-39 53 34 43
c19 23 34 47 34 51 0 5 -14 7 -32 6 -25 -2 -38 -12 -66 -49 -18 -27 -35 -48
-36 -48 -1 0 0 47 2 104 l3 104 -34 -1 -33 -1 -1 -163z"/>
<path d="M2306 2911 c-14 -15 -15 -24 -6 -40 11 -22 26 -26 54 -15 30 11 13
74 -19 74 -7 0 -20 -9 -29 -19z"/>
<path d="M1404 2894 c-53 -26 -81 -99 -69 -180 13 -89 88 -136 180 -113 54 14
59 20 44 53 -10 20 -15 23 -30 16 -31 -17 -84 -12 -105 11 -28 31 -25 126 5
150 26 21 62 24 92 8 17 -8 23 -7 35 8 21 28 17 40 -17 52 -44 15 -98 13 -135
-5z"/>
<path d="M195 2750 l0 -150 33 0 32 0 0 65 0 65 66 0 66 0 -4 -65 -4 -65 36 0
35 0 0 150 0 150 -35 0 -35 0 3 -60 4 -60 -66 0 -66 0 0 60 0 60 -32 0 -33 0
0 -150z"/>
<path d="M950 2845 c0 -52 1 -55 25 -55 17 0 25 6 25 18 0 9 3 34 6 55 6 36 6
37 -25 37 -31 0 -31 0 -31 -55z"/>
<path d="M2815 2837 c-11 -6 -44 -14 -73 -18 -30 -4 -62 -15 -73 -25 -23 -21
-25 -71 -3 -96 13 -14 14 -21 5 -32 -7 -8 -10 -24 -6 -36 3 -11 2 -20 -4 -20
-14 0 -24 -36 -16 -60 8 -27 71 -44 129 -36 48 8 86 41 86 77 0 24 -38 49 -75
49 -40 0 -75 10 -75 21 0 5 13 9 29 9 73 0 116 45 92 96 -10 22 -9 26 8 31 13
3 17 11 14 24 -7 26 -15 29 -38 16z m-47 -66 c24 -15 10 -56 -19 -59 -34 -4
-54 20 -39 47 11 22 35 27 58 12z m21 -185 c10 -12 8 -17 -8 -25 -41 -23 -105
-2 -86 29 9 15 81 12 94 -4z"/>
<path d="M533 2808 c-37 -12 -39 -16 -20 -42 12 -17 14 -17 44 0 26 15 33 16
47 5 27 -23 18 -38 -26 -44 -25 -3 -51 -15 -66 -31 -22 -21 -24 -29 -16 -57
12 -42 51 -57 94 -36 16 9 30 11 30 6 0 -5 14 -9 30 -9 l30 0 0 74 c0 40 -5
87 -11 104 -14 42 -64 53 -136 30z m83 -133 c3 -19 -32 -39 -53 -31 -22 9 -11
39 17 46 28 8 33 6 36 -15z"/>
<path  d="M1062 2804 c-15 -10 -22 -25 -22 -48 0 -38 12 -51 66 -70 47 -16 54
-43 9 -38 -16 2 -36 8 -43 14 -9 8 -16 6 -27 -8 -8 -10 -13 -23 -11 -29 5 -17
69 -35 106 -29 47 8 70 30 70 69 0 37 -22 60 -69 72 -44 11 -53 33 -14 33 16
0 34 -5 40 -11 7 -7 15 -2 27 15 15 24 15 26 -3 36 -29 15 -104 12 -129 -6z"/>
<path d="M1619 2792 c-25 -23 -31 -35 -31 -72 -1 -25 6 -59 15 -76 32 -62 125
-68 173 -11 23 27 26 38 22 86 -4 44 -10 59 -32 78 -40 34 -106 32 -147 -5z
m109 -79 c3 -44 0 -53 -17 -63 -17 -8 -24 -7 -41 10 -38 38 -19 114 28 108 25
-3 27 -7 30 -55z"/>
<path d="M1859 2792 c-27 -24 -31 -34 -31 -78 0 -64 14 -92 58 -110 45 -19 95
-10 126 23 19 20 23 36 23 85 0 53 -3 62 -28 84 -41 35 -106 33 -148 -4z m106
-82 c0 -51 -2 -55 -24 -58 -43 -6 -66 51 -40 99 7 14 19 19 37 17 26 -3 27 -6
27 -58z"/>
<path d="M2307 2813 c-2 -5 -5 -54 -6 -111 l-2 -103 33 3 33 3 0 107 0 108
-27 0 c-15 0 -29 -3 -31 -7z"/>
<path d="M2413 2710 l-2 -110 34 0 35 0 0 84 c0 78 2 84 22 89 41 11 51 -10
46 -95 l-5 -78 34 0 35 0 -5 97 c-3 78 -8 99 -23 110 -21 15 -43 17 -78 3 -17
-6 -26 -6 -26 0 0 6 -15 10 -32 10 l-33 0 -2 -110z"/>
<path d="M2295 2548 c-64 -51 -200 -117 -340 -164 -158 -52 -222 -84 -291
-142 -56 -47 -144 -163 -144 -190 0 -29 -21 -18 -39 21 -51 112 -185 238 -319
299 -73 33 -137 57 -165 63 -69 15 -241 82 -284 112 -67 45 -87 40 -78 -20 17
-112 37 -232 40 -238 2 -3 6 -16 9 -30 10 -53 40 -104 89 -154 l52 -51 -49
-50 c-64 -65 -114 -165 -133 -264 -2 -14 -8 -43 -13 -65 -21 -88 0 -369 31
-427 5 -10 7 -18 5 -18 -10 0 66 -205 109 -298 87 -183 259 -412 416 -553 113
-100 304 -239 330 -239 6 0 43 21 83 47 277 184 508 439 650 719 73 144 139
341 154 459 9 66 9 290 0 340 -19 113 -74 227 -147 304 l-57 61 28 27 c56 53
89 135 117 283 22 120 31 174 31 192 0 29 -30 20 -85 -24z m-1465 -100 c41
-14 115 -38 165 -54 109 -34 223 -89 290 -141 60 -46 137 -140 171 -207 24
-48 25 -75 1 -43 -14 19 -132 82 -167 89 -14 3 -69 15 -123 27 -94 21 -101 22
-167 7 -38 -9 -86 -24 -105 -33 l-35 -17 -46 45 c-25 24 -54 58 -64 74 -20 33
-47 127 -55 196 -3 24 -10 60 -15 79 -16 58 -12 61 33 31 23 -15 76 -39 117
-53z m1491 -13 c-6 -27 -13 -66 -16 -85 -16 -99 -48 -171 -101 -230 -33 -36
-37 -38 -57 -25 -12 7 -57 21 -100 29 -73 15 -84 15 -194 -4 -135 -23 -196
-48 -275 -113 -31 -25 -59 -43 -62 -40 -3 4 -2 11 3 17 5 6 21 34 36 61 90
164 192 235 450 314 80 25 191 76 255 117 74 49 80 45 61 -41z m-1119 -365
c15 0 29 -4 32 -9 3 -4 27 -10 54 -13 54 -5 141 -55 192 -111 l32 -35 37 37
c72 72 129 103 271 146 79 24 234 13 310 -23 96 -45 169 -137 218 -275 24 -67
26 -84 26 -247 0 -159 -2 -184 -27 -278 -91 -344 -282 -648 -557 -886 -93 -80
-246 -186 -269 -186 -28 0 -189 113 -285 200 -275 249 -449 531 -542 875 -24
90 -27 118 -28 270 0 159 1 175 27 250 43 128 121 228 214 275 58 30 215 44
248 23 11 -7 32 -13 47 -13z"/>
<path d="M1026 2341 c-4 -5 7 -17 23 -25 16 -9 56 -41 89 -71 33 -31 69 -55
81 -55 25 0 28 18 4 27 -10 4 -28 19 -41 35 -55 65 -141 114 -156 89z"/>
<path d="M815 2299 c-12 -18 33 -55 103 -84 37 -16 74 -34 83 -42 20 -17 39
-17 39 1 0 19 -46 55 -79 63 -37 8 -95 39 -110 57 -16 19 -27 20 -36 5z"/>
<path  d="M2194 2371 c-16 -15 -44 -44 -62 -65 -18 -20 -39 -36 -47 -36 -8 0
-15 -7 -15 -15 0 -30 49 -16 90 26 22 23 40 45 40 50 0 4 14 16 30 26 17 9 30
23 30 30 0 23 -37 14 -66 -16z"/>
<path  d="M1895 2259 c-32 -28 -77 -63 -99 -77 -23 -14 -43 -28 -45 -29 -3 -2
0 -8 7 -15 8 -8 25 -2 68 23 31 19 59 40 61 47 3 7 25 26 49 43 43 29 58 59
31 59 -8 0 -40 -23 -72 -51z"/>
<path d="M1037 1762 c-26 -28 -24 -145 3 -172 11 -11 25 -20 30 -20 6 0 19 9
30 20 28 28 29 149 2 173 -24 22 -45 21 -65 -1z m53 -86 c0 -46 -12 -72 -29
-62 -12 8 -16 108 -4 119 14 15 33 -18 33 -57z"/>
<path d="M1906 1737 c-14 -10 -16 -26 -14 -97 3 -83 4 -85 32 -95 24 -8 31 -6
47 14 28 34 27 143 -1 171 -23 23 -39 25 -64 7z m45 -39 c1 -24 2 -83 0 -100
0 -10 -8 -18 -16 -18 -12 0 -15 13 -15 58 0 32 3 62 7 65 10 11 23 8 24 -5z"/>
<path d="M1492 1464 c-20 -14 -22 -24 -22 -103 0 -72 3 -91 18 -104 24 -22 38
-21 62 3 17 17 20 33 20 100 0 67 -3 83 -20 100 -24 24 -29 24 -58 4z m44
-115 c-2 -32 -6 -62 -10 -66 -23 -23 -42 104 -21 140 18 30 33 -7 31 -74z"/>
<path d="M1787 1162 c-26 -28 -24 -182 1 -205 24 -22 45 -21 65 1 26 28 24
182 -1 205 -24 22 -45 21 -65 -1z m51 -82 c2 -30 1 -64 -3 -77 -6 -26 -25 -32
-25 -8 0 8 -4 15 -8 15 -9 0 -6 67 3 108 10 41 30 18 33 -38z"/>
<path d="M1096 1108 c-11 -16 -16 -46 -16 -99 0 -64 3 -79 20 -94 16 -15 26
-17 48 -9 27 9 27 11 30 104 2 80 0 97 -15 107 -25 19 -50 16 -67 -9z m52 -90
c-2 -57 -6 -73 -18 -73 -20 0 -28 124 -8 136 25 17 29 8 26 -63z"/>
<path d="M1320 740 c-16 -16 -20 -33 -20 -95 0 -62 4 -79 20 -95 25 -25 42
-25 63 -2 25 28 24 172 -1 195 -24 22 -38 21 -62 -3z m50 -101 c0 -52 -3 -69
-14 -69 -18 0 -26 22 -26 71 0 45 16 83 31 74 5 -4 9 -37 9 -76z"/>
<path d="M1638 729 c-27 -15 -26 -188 0 -212 24 -22 38 -21 62 3 28 28 30 178
2 203 -21 19 -39 21 -64 6z m50 -104 c3 -65 -8 -93 -30 -79 -10 6 -11 138 -1
148 18 17 28 -6 31 -69z"/>
</g>
</svg>
